<?xml version="1.0" encoding="utf-8"?>
<!-- Generator: Adobe Illustrator 15.0.0, SVG Export Plug-In . SVG Version: 6.00 Build 0)  -->
<!DOCTYPE svg PUBLIC "-//W3C//DTD SVG 1.1//EN" "http://www.w3.org/Graphics/SVG/1.1/DTD/svg11.dtd">
<svg version="1.1" id="Layer_1" xmlns="http://www.w3.org/2000/svg" xmlns:xlink="http://www.w3.org/1999/xlink" x="0px" y="0px"
	 width="200px" height="70px" viewBox="0 0 200 70" enable-background="new 0 0 200 70" xml:space="preserve">
<g>
	<path fill="#42C4DD" d="M19.398,13.219H3.69c-1.175,0-2.064,0.318-2.718,0.972S0,15.734,0,16.91v21.169
		c0,0.74,0.08,1.329,0.239,1.75c0.139,0.372,0.334,0.646,0.595,0.843c0.285,0.215,0.655,0.368,1.097,0.456
		c1.037,0.207,2.525,0.199,3.966,0.016c0.367-0.047,0.684-0.094,0.948-0.14V30.576h9.354c0.684,0,1.199-0.183,1.575-0.559
		c0.366-0.365,0.559-1.078,0.559-2.061c0-0.561-0.078-1.101-0.232-1.606c-0.096-0.315-0.205-0.589-0.324-0.819H6.748v-7.172h11.057
		c0.684,0,1.199-0.182,1.574-0.557c0.366-0.366,0.559-1.096,0.559-2.111c0-0.563-0.079-1.113-0.233-1.636
		C19.608,13.733,19.506,13.454,19.398,13.219"/>
	<path fill="#42C4DD" d="M43.673,20.986c-1.033-1.001-2.29-1.792-3.733-2.35c-1.457-0.56-3.108-0.844-4.906-0.844
		c-1.805,0-3.458,0.277-4.915,0.823c-1.441,0.54-2.695,1.322-3.726,2.323c-1.03,0.999-1.84,2.236-2.41,3.674
		c-0.574,1.452-0.865,3.1-0.865,4.9c0,1.831,0.292,3.497,0.865,4.948c0.57,1.44,1.381,2.676,2.409,3.674
		c1.032,1.001,2.286,1.783,3.727,2.323c1.456,0.547,3.11,0.823,4.915,0.823c1.807,0,3.465-0.263,4.929-0.78
		c1.437-0.509,2.688-1.266,3.716-2.248c1.025-0.981,1.833-2.216,2.403-3.668c0.575-1.471,0.868-3.178,0.868-5.072
		c0-1.766-0.292-3.397-0.867-4.852C45.512,23.223,44.702,21.986,43.673,20.986 M38.912,34.51c-0.892,1.309-2.18,1.971-3.831,1.971
		c-1.641,0-2.942-0.648-3.865-1.927c-0.864-1.195-1.303-2.89-1.303-5.04c0-2.115,0.429-3.792,1.274-4.986
		c0.909-1.283,2.203-1.934,3.847-1.934c1.642,0,2.935,0.65,3.845,1.934c0.845,1.195,1.273,2.873,1.273,4.986
		C40.152,31.622,39.735,33.302,38.912,34.51"/>
	<path fill="#42C4DD" d="M60.665,18.44c-0.901,0.14-1.78,0.337-2.616,0.584c-0.837,0.248-1.629,0.538-2.354,0.862
		c-0.694,0.309-1.278,0.655-1.736,1.028c-0.427,0.348-0.756,0.742-0.976,1.169c-0.214,0.413-0.322,0.931-0.322,1.54v14.601
		c0,0.697,0.085,1.251,0.25,1.647c0.155,0.367,0.361,0.644,0.633,0.848c0.283,0.213,0.635,0.354,1.075,0.43
		c1.071,0.183,2.552,0.173,3.832-0.005c0.336-0.048,0.602-0.091,0.811-0.129V24.55l0.486-0.225c0.47-0.216,1.037-0.406,1.686-0.564
		c0.612-0.149,1.268-0.29,1.964-0.422c0.702-0.133,1.433-0.236,2.172-0.304c0.556-0.049,1.105-0.082,1.641-0.094
		c0.079-0.188,0.151-0.39,0.213-0.601c0.106-0.36,0.16-0.731,0.16-1.1c0-1.072-0.323-1.808-0.988-2.247
		c-0.765-0.506-1.855-0.762-3.237-0.762C62.464,18.231,61.557,18.301,60.665,18.44"/>
	<path fill="#42C4DD" d="M79.013,19.834c-0.154-0.366-0.36-0.643-0.631-0.847c-0.28-0.21-0.641-0.354-1.075-0.429
		c-1.067-0.185-2.567-0.173-3.831,0.004c-0.337,0.046-0.604,0.09-0.813,0.129v13.253c0,1.688,0.27,3.135,0.801,4.302
		c0.523,1.148,1.273,2.097,2.226,2.818c0.979,0.742,2.166,1.3,3.529,1.659c1.401,0.369,2.958,0.557,4.629,0.557
		c1.771,0,3.434-0.182,4.943-0.538c1.477-0.349,2.758-0.862,3.811-1.524c1.133-0.675,1.653-1.606,1.653-2.942V21.483
		c0-0.696-0.085-1.251-0.252-1.65c-0.154-0.365-0.36-0.642-0.631-0.846c-0.279-0.21-0.642-0.354-1.075-0.429
		c-1.064-0.183-2.563-0.173-3.831,0.004c-0.337,0.046-0.603,0.09-0.813,0.129v16.886l-0.463,0.23
		c-0.313,0.157-0.722,0.303-1.246,0.446c-0.548,0.152-1.218,0.226-2.047,0.226c-1.437,0-2.571-0.356-3.373-1.058
		c-0.836-0.73-1.26-1.9-1.26-3.478V21.483C79.265,20.787,79.18,20.232,79.013,19.834"/>
	<path fill="#42C4DD" d="M102.734,40.175c0.749,0.367,1.679,0.646,2.763,0.827c1.117,0.187,2.349,0.28,3.658,0.28
		c3.399,0,5.98-0.647,7.674-1.925c1.643-1.238,2.441-2.914,2.441-5.123c0-1.756-0.56-3.142-1.711-4.237
		c-1.198-1.138-3.303-2.058-6.254-2.735l-1.507-0.34c-1.033-0.221-1.718-0.463-2.146-0.764c-0.551-0.387-0.842-0.926-0.842-1.561
		c0-0.5,0.181-1.414,1.391-1.916c1.02-0.425,2.573-0.596,4.659-0.273c0.65,0.1,1.302,0.228,1.938,0.378
		c0.637,0.151,1.236,0.322,1.781,0.509c0.277,0.096,0.522,0.189,0.735,0.282c0.176-0.208,0.331-0.443,0.465-0.702
		c0.213-0.414,0.321-0.932,0.321-1.54c0-0.588-0.163-1.078-0.498-1.497c-0.369-0.461-0.889-0.848-1.546-1.149
		c-0.708-0.325-1.563-0.573-2.541-0.739c-1.007-0.169-2.1-0.256-3.242-0.256c-1.51,0-2.901,0.17-4.137,0.506
		c-1.215,0.33-2.268,0.798-3.128,1.391c-0.825,0.569-1.473,1.289-1.926,2.138c-0.452,0.845-0.681,1.81-0.681,2.868
		c0,1.97,0.581,3.426,1.777,4.451c1.261,1.084,3.251,1.896,5.918,2.418l1.464,0.292c1.016,0.182,1.756,0.431,2.246,0.758
		c0.626,0.418,0.957,1.028,0.957,1.765c0,0.458-0.161,1.315-1.24,1.903c-0.667,0.363-1.553,0.54-2.711,0.54
		c-1.676,0-3.183-0.22-4.475-0.652c-1.039-0.346-1.994-0.737-2.847-1.167c-0.213,0.223-0.408,0.477-0.578,0.759
		c-0.243,0.4-0.366,0.919-0.366,1.539c0,0.66,0.176,1.211,0.535,1.683C101.473,39.396,102.027,39.829,102.734,40.175"/>
	<polygon fill="#717073" points="131.079,30.892 132.483,30.892 132.483,41.282 131.079,41.282 131.079,36.435 125.653,36.435 
		125.653,41.282 124.249,41.282 124.249,30.892 125.653,30.892 125.653,35.189 131.079,35.189 	"/>
	<path fill="#717073" d="M140.948,38.692c-0.043,0.36-0.391,1.433-1.346,2.068c-0.348,0.232-0.84,0.521-2.055,0.521
		c-2.127,0-3.386-1.606-3.386-3.792c0-2.344,1.128-4.21,3.631-4.21c2.186,0,3.256,1.736,3.256,4.413h-5.527
		c0,1.578,0.737,2.489,2.2,2.489c1.201,0,1.91-0.926,1.953-1.489H140.948z M139.733,36.681c-0.072-1.173-0.564-2.258-2.113-2.258
		c-1.172,0-2.099,1.085-2.099,2.258H139.733z"/>
	<path fill="#717073" d="M142.525,35.798c0.058-1.809,1.259-2.518,3.126-2.518c0.607,0,2.807,0.173,2.807,2.112v4.356
		c0,0.318,0.16,0.448,0.421,0.448c0.115,0,0.274-0.028,0.419-0.058v0.926c-0.217,0.059-0.405,0.146-0.694,0.146
		c-1.129,0-1.303-0.579-1.346-1.158c-0.492,0.535-1.259,1.23-2.735,1.23c-1.389,0-2.373-0.883-2.373-2.186
		c0-0.637,0.188-2.112,2.301-2.373l2.099-0.261c0.304-0.028,0.665-0.145,0.665-0.896c0-0.796-0.579-1.23-1.779-1.23
		c-1.447,0-1.65,0.882-1.736,1.462H142.525z M147.186,37.201c-0.203,0.159-0.521,0.275-2.099,0.478
		c-0.622,0.087-1.621,0.275-1.621,1.23c0,0.824,0.42,1.317,1.375,1.317c1.187,0,2.345-0.768,2.345-1.781V37.201z"/>
	<rect x="150.644" y="30.892" fill="#717073" width="1.273" height="10.39"/>
	<path fill="#717073" d="M155.391,34.669v4.92c0,0.593,0.506,0.593,0.767,0.593h0.447v1c-0.462,0.043-0.823,0.101-0.954,0.101
		c-1.259,0-1.534-0.709-1.534-1.621v-4.992h-1.027v-1.057h1.027V31.5h1.274v2.112h1.214v1.057H155.391z"/>
	<path fill="#717073" d="M164.015,41.282h-1.273v-4.949c0-1.027-0.29-1.693-1.505-1.693c-1.042,0-2.112,0.608-2.112,2.518v4.124
		h-1.274v-10.39h1.274v3.835h0.028c0.362-0.478,0.998-1.23,2.214-1.23c1.172,0,2.648,0.478,2.648,2.634V41.282z"/>
	<polygon fill="#717073" points="3.762,57.438 2.807,57.438 2.807,49.95 0,49.95 0,49.078 6.569,49.078 6.569,49.95 3.762,49.95 	
		"/>
	<path fill="#717073" d="M9.626,56.782c0.848,0,1.445-0.347,1.947-0.872l0.573,0.514c-0.621,0.692-1.374,1.158-2.543,1.158
		c-1.696,0-3.082-1.302-3.082-3.225c0-1.791,1.254-3.225,2.962-3.225c1.827,0,2.878,1.457,2.878,3.272c0,0.084,0,0.18-0.012,0.287
		H7.453C7.584,56.029,8.54,56.782,9.626,56.782 M11.43,54.012c-0.096-1.124-0.741-2.103-1.971-2.103
		c-1.075,0-1.887,0.896-2.007,2.103H11.43z"/>
	<path fill="#717073" d="M16.996,57.582c-1.803,0-3.165-1.47-3.165-3.213c0-1.756,1.362-3.236,3.165-3.236
		c1.17,0,1.899,0.489,2.472,1.099l-0.609,0.645c-0.489-0.513-1.039-0.931-1.875-0.931c-1.254,0-2.209,1.063-2.209,2.399
		c0,1.351,0.979,2.413,2.269,2.413c0.788,0,1.397-0.395,1.887-0.92l0.585,0.55C18.896,57.081,18.155,57.582,16.996,57.582"/>
	<path fill="#717073" d="M22.192,57.438h-0.919V48.72h0.919v3.619c0.406-0.669,1.051-1.206,2.114-1.206
		c1.493,0,2.365,1.003,2.365,2.473v3.833h-0.92v-3.606c0-1.147-0.621-1.863-1.708-1.863c-1.063,0-1.852,0.776-1.852,1.935V57.438z"
		/>
	<path fill="#717073" d="M29.788,57.438h-0.919v-6.175h0.919v1.075c0.406-0.669,1.052-1.206,2.114-1.206
		c1.493,0,2.365,1.003,2.365,2.473v3.833h-0.92v-3.606c0-1.147-0.622-1.863-1.708-1.863c-1.063,0-1.852,0.776-1.852,1.935V57.438z"
		/>
	<path fill="#717073" d="M39.284,57.582c-1.851,0-3.201-1.457-3.201-3.213s1.361-3.236,3.225-3.236c1.852,0,3.213,1.457,3.213,3.213
		S41.147,57.582,39.284,57.582 M39.284,51.945c-1.337,0-2.257,1.063-2.257,2.4c0,1.337,0.979,2.413,2.281,2.413
		c1.338,0,2.269-1.063,2.269-2.39C41.577,53.021,40.586,51.945,39.284,51.945"/>
	<rect x="44.504" y="48.72" fill="#717073" width="0.919" height="8.719"/>
	<path fill="#717073" d="M50.619,57.582c-1.852,0-3.201-1.457-3.201-3.213s1.362-3.236,3.225-3.236c1.851,0,3.213,1.457,3.213,3.213
		S52.482,57.582,50.619,57.582 M50.619,51.945c-1.338,0-2.257,1.063-2.257,2.4c0,1.337,0.979,2.413,2.281,2.413
		c1.337,0,2.27-1.063,2.27-2.39C52.912,53.021,51.92,51.945,50.619,51.945"/>
	<path fill="#717073" d="M58.49,59.374c-1.027,0-1.982-0.287-2.807-0.86l0.418-0.717c0.705,0.514,1.493,0.788,2.376,0.788
		c1.362,0,2.246-0.753,2.246-2.197v-0.729c-0.537,0.717-1.29,1.302-2.424,1.302c-1.481,0-2.902-1.099-2.902-2.901
		c0-1.815,1.434-2.927,2.902-2.927c1.159,0,1.911,0.573,2.413,1.242v-1.111h0.919v5.1C61.631,58.358,60.389,59.374,58.49,59.374
		 M58.478,51.945c-1.17,0-2.137,0.8-2.137,2.09c0,1.266,0.991,2.114,2.137,2.114c1.171,0,2.27-0.837,2.27-2.103
		C60.747,52.77,59.648,51.945,58.478,51.945"/>
	<path fill="#717073" d="M66.934,57.642c-0.525,1.278-1.123,1.744-2.054,1.744c-0.514,0-0.896-0.107-1.313-0.311l0.311-0.729
		c0.298,0.155,0.573,0.227,0.967,0.227c0.549,0,0.896-0.287,1.266-1.158l-2.807-6.151h1.015l2.246,5.147l1.982-5.147h0.979
		L66.934,57.642z"/>
	<path fill="#717073" d="M80,57.438v-1.241c-0.501,0.74-1.23,1.373-2.365,1.373c-1.481,0-2.95-1.17-2.95-3.213
		c0-2.03,1.469-3.225,2.95-3.225c1.147,0,1.887,0.621,2.365,1.314V48.72h0.92v8.719H80z M77.803,51.956
		c-1.194,0-2.174,0.884-2.174,2.39c0,1.469,1.003,2.399,2.174,2.399c1.146,0,2.233-0.955,2.233-2.399
		C80.037,52.912,78.95,51.956,77.803,51.956"/>
	<path fill="#717073" d="M85.937,56.782c0.848,0,1.445-0.347,1.947-0.872l0.573,0.514c-0.621,0.692-1.374,1.158-2.544,1.158
		c-1.696,0-3.081-1.302-3.081-3.225c0-1.791,1.253-3.225,2.961-3.225c1.828,0,2.878,1.457,2.878,3.272c0,0.084,0,0.18-0.012,0.287
		h-4.896C83.895,56.029,84.85,56.782,85.937,56.782 M87.74,54.012c-0.095-1.124-0.741-2.103-1.97-2.103
		c-1.075,0-1.888,0.896-2.007,2.103H87.74z"/>
	<rect x="90.607" y="48.72" fill="#717073" width="0.92" height="8.719"/>
	<path fill="#717073" d="M93.927,48.899h1.051v1.015h-1.051V48.899z M93.987,51.264h0.919v6.175h-0.919V51.264z"/>
	<polygon fill="#717073" points="101.857,51.264 102.849,51.264 100.162,57.487 99.351,57.487 96.674,51.264 97.69,51.264 
		99.768,56.388 	"/>
	<path fill="#717073" d="M106.898,56.782c0.848,0,1.445-0.347,1.946-0.872l0.574,0.514c-0.621,0.692-1.374,1.158-2.545,1.158
		c-1.695,0-3.08-1.302-3.08-3.225c0-1.791,1.253-3.225,2.961-3.225c1.828,0,2.878,1.457,2.878,3.272c0,0.084,0,0.18-0.012,0.287
		h-4.896C104.856,56.029,105.812,56.782,106.898,56.782 M108.702,54.012c-0.096-1.124-0.741-2.103-1.971-2.103
		c-1.075,0-1.888,0.896-2.007,2.103H108.702z"/>
	<path fill="#717073" d="M112.404,57.438h-0.919v-6.175h0.919v1.612c0.454-1.026,1.351-1.767,2.521-1.719v0.991h-0.072
		c-1.349,0-2.448,0.967-2.448,2.83V57.438z"/>
	<path fill="#717073" d="M116.586,48.899h1.05v1.015h-1.05V48.899z M116.645,51.264h0.921v6.175h-0.921V51.264z"/>
	<path fill="#717073" d="M120.86,57.438h-0.919v-6.175h0.919v1.075c0.406-0.669,1.052-1.206,2.114-1.206
		c1.492,0,2.364,1.003,2.364,2.473v3.833h-0.919v-3.606c0-1.147-0.621-1.863-1.708-1.863c-1.063,0-1.852,0.776-1.852,1.935V57.438z"
		/>
	<path fill="#717073" d="M130.273,59.374c-1.027,0-1.983-0.287-2.808-0.86l0.419-0.717c0.705,0.514,1.492,0.788,2.376,0.788
		c1.362,0,2.245-0.753,2.245-2.197v-0.729c-0.537,0.717-1.289,1.302-2.425,1.302c-1.48,0-2.901-1.099-2.901-2.901
		c0-1.815,1.434-2.927,2.901-2.927c1.159,0,1.912,0.573,2.414,1.242v-1.111h0.918v5.1C133.413,58.358,132.172,59.374,130.273,59.374
		 M130.261,51.945c-1.17,0-2.139,0.8-2.139,2.09c0,1.266,0.992,2.114,2.139,2.114c1.17,0,2.269-0.837,2.269-2.103
		C132.529,52.77,131.431,51.945,130.261,51.945"/>
	<path fill="#717073" d="M142.313,57.582c-1.805,0-3.166-1.47-3.166-3.213c0-1.756,1.361-3.236,3.166-3.236
		c1.17,0,1.898,0.489,2.472,1.099l-0.608,0.645c-0.49-0.513-1.039-0.931-1.876-0.931c-1.253,0-2.209,1.063-2.209,2.399
		c0,1.351,0.979,2.413,2.27,2.413c0.788,0,1.396-0.395,1.887-0.92l0.585,0.55C144.211,57.081,143.471,57.582,142.313,57.582"/>
	<path fill="#717073" d="M146.947,52.447l-0.274-0.753c0.68-0.311,1.349-0.514,2.245-0.514c1.684,0,2.627,0.859,2.627,2.483v3.774
		h-0.884v-0.932c-0.431,0.562-1.146,1.063-2.234,1.063c-1.146,0-2.305-0.646-2.305-1.936c0-1.313,1.076-2.006,2.641-2.006
		c0.788,0,1.349,0.107,1.898,0.263v-0.215c0-1.11-0.681-1.684-1.84-1.684C148.093,51.993,147.52,52.184,146.947,52.447
		 M147.055,55.6c0,0.788,0.716,1.242,1.552,1.242c1.135,0,2.066-0.692,2.066-1.672v-0.598c-0.454-0.131-1.063-0.263-1.815-0.263
		C147.699,54.31,147.055,54.812,147.055,55.6"/>
	<path fill="#717073" d="M154.663,57.438h-0.92v-6.175h0.92v1.612c0.454-1.026,1.349-1.767,2.52-1.719v0.991h-0.072
		c-1.35,0-2.447,0.967-2.447,2.83V57.438z"/>
	<path fill="#717073" d="M161.279,56.782c0.849,0,1.445-0.347,1.946-0.872l0.574,0.514c-0.621,0.692-1.374,1.158-2.544,1.158
		c-1.696,0-3.081-1.302-3.081-3.225c0-1.791,1.254-3.225,2.961-3.225c1.828,0,2.879,1.457,2.879,3.272c0,0.084,0,0.18-0.012,0.287
		h-4.897C159.237,56.029,160.192,56.782,161.279,56.782 M163.083,54.012c-0.096-1.124-0.741-2.103-1.971-2.103
		c-1.074,0-1.887,0.896-2.007,2.103H163.083z"/>
</g>
</svg>
